<?xml version="1.0" encoding="UTF-8"?> <svg xmlns="http://www.w3.org/2000/svg" width="140" height="37" viewBox="0 0 140 37" fill="none"><path d="M47.4906 28.8276H44.9763C44.847 28.8276 44.723 28.7766 44.6316 28.686C44.5401 28.5953 44.4888 28.4722 44.4888 28.344V7.44457C44.4888 7.3163 44.5401 7.19329 44.6316 7.10259C44.723 7.01189 44.847 6.96094 44.9763 6.96094H47.4906C47.6199 6.96094 47.7439 7.01189 47.8354 7.10259C47.9268 7.19329 47.9782 7.3163 47.9782 7.44457L47.9603 19.7756L53.2229 13.7254C53.2687 13.6746 53.3248 13.6339 53.3875 13.6062C53.4503 13.5784 53.5182 13.5641 53.5869 13.5641H56.3905C56.4808 13.5676 56.5684 13.5959 56.6434 13.6459C56.7185 13.6959 56.778 13.7655 56.8155 13.8471C56.8529 13.9288 56.8667 14.0191 56.8554 14.108C56.8441 14.197 56.808 14.281 56.7513 14.3509L50.9605 20.917L57.1365 28.0409C57.1934 28.1109 57.2294 28.1953 57.2406 28.2845C57.2518 28.3737 57.2377 28.4643 57.1999 28.546C57.1621 28.6277 57.102 28.6973 57.0265 28.7471C56.951 28.7968 56.863 28.8247 56.7724 28.8276H53.9201C53.8517 28.8275 53.7841 28.813 53.7216 28.7853C53.6592 28.7575 53.6033 28.717 53.5577 28.6664L47.9538 22.326L47.9717 28.3504C47.97 28.4765 47.9188 28.5969 47.8289 28.686C47.7391 28.7751 47.6177 28.8259 47.4906 28.8276Z" fill="white"></path><path d="M74.5553 28.0006V14.1675C74.5553 14.0434 74.5036 13.9243 74.4115 13.8365C74.3195 13.7487 74.1946 13.6994 74.0645 13.6994H71.5956C71.4654 13.6994 71.3406 13.7487 71.2486 13.8365C71.1565 13.9243 71.1048 14.0434 71.1048 14.1675V15.9497L70.9265 15.7094C69.8123 14.2034 67.9063 13.3389 65.6992 13.3389C61.4683 13.3389 58.1553 16.741 58.1553 21.0841C58.1553 25.4272 61.4683 28.8278 65.6992 28.8278C67.8179 28.8278 69.7714 27.8914 70.9265 26.3308L71.1048 26.0889V27.9944C71.1048 28.1186 71.1565 28.2376 71.2486 28.3254C71.3406 28.4132 71.4654 28.4626 71.5956 28.4626H74.0759C74.203 28.4598 74.3239 28.41 74.4133 28.3239C74.5027 28.2377 74.5536 28.1219 74.5553 28.0006ZM66.4682 25.8158C63.7768 25.8158 61.6696 23.7387 61.6696 21.0872C61.6696 18.4358 63.7768 16.3539 66.4682 16.3539C69.1595 16.3539 71.2684 18.4326 71.2684 21.0841C71.2684 23.7355 69.1579 25.8127 66.4682 25.8127V25.8158Z" fill="white"></path><path d="M80.4306 6.96094H77.791C77.5135 6.96094 77.2886 7.17464 77.2886 7.43826V28.3503C77.2886 28.6139 77.5135 28.8276 77.791 28.8276H80.4306C80.7081 28.8276 80.933 28.6139 80.933 28.3503V7.43826C80.933 7.17464 80.7081 6.96094 80.4306 6.96094Z" fill="white"></path><path d="M90.045 28.8255C90.8707 28.8465 91.6929 28.714 92.4672 28.435C92.5564 28.3991 92.6327 28.3385 92.6867 28.2609C92.7407 28.1832 92.77 28.0919 92.771 27.9982V26.0233C92.7696 25.9501 92.7509 25.8781 92.7164 25.8131C92.6818 25.748 92.6323 25.6915 92.5717 25.6479C92.5111 25.6043 92.441 25.5748 92.3668 25.5617C92.2926 25.5485 92.2163 25.5521 92.1437 25.5722C91.8169 25.666 91.4779 25.7143 91.1371 25.7156C89.4046 25.7156 88.5983 24.9186 88.5983 23.1907V16.2409H92.2849C92.4156 16.2409 92.5409 16.1905 92.6333 16.1008C92.7257 16.0111 92.7776 15.8895 92.7776 15.7627V13.8499C92.7776 13.7231 92.7257 13.6014 92.6333 13.5118C92.5409 13.4221 92.4156 13.3717 92.2849 13.3717H88.5983V10.1725C88.5983 10.0471 88.5475 9.92664 88.4569 9.83718C88.3662 9.74773 88.243 9.69643 88.1138 9.69434H85.5914C85.4608 9.69434 85.3354 9.74472 85.2431 9.8344C85.1507 9.92408 85.0988 10.0457 85.0988 10.1725V13.3797H83.248C83.1174 13.3797 82.9921 13.43 82.8997 13.5197C82.8073 13.6094 82.7554 13.731 82.7554 13.8579V15.7707C82.7554 15.8975 82.8073 16.0191 82.8997 16.1088C82.9921 16.1985 83.1174 16.2489 83.248 16.2489H85.1053V23.8522C85.1053 26.9637 86.9511 28.8255 90.045 28.8255Z" fill="white"></path><path d="M121.043 16.8174C121.166 16.8174 121.286 16.8174 121.399 16.8286C121.468 16.8321 121.537 16.8222 121.602 16.7996C121.666 16.777 121.725 16.7421 121.775 16.6971C121.825 16.6521 121.865 16.5978 121.892 16.5377C121.92 16.4776 121.933 16.4129 121.933 16.3475V13.82C121.934 13.6967 121.884 13.5781 121.795 13.4885C121.705 13.399 121.583 13.3454 121.453 13.3389C121.406 13.3389 121.357 13.3389 121.308 13.3389C119.214 13.3389 117.357 14.4727 116.576 16.2256L116.383 16.6666V14.1311C116.383 14.0049 116.331 13.8837 116.238 13.7937C116.144 13.7037 116.018 13.6521 115.885 13.65H113.321C113.188 13.6521 113.061 13.7037 112.968 13.7937C112.875 13.8837 112.822 14.0049 112.822 14.1311V28.3466C112.822 28.4729 112.875 28.594 112.968 28.684C113.061 28.774 113.188 28.8257 113.321 28.8278H115.917C116.051 28.8278 116.18 28.7771 116.275 28.6868C116.37 28.5966 116.424 28.4742 116.424 28.3466V22.1482C116.417 18.9119 118.234 16.8174 121.043 16.8174Z" fill="white"></path><path d="M138.333 28.0006V14.1675C138.333 14.0434 138.281 13.9243 138.189 13.8365C138.097 13.7487 137.973 13.6994 137.843 13.6994H135.371C135.241 13.6994 135.116 13.7487 135.024 13.8365C134.932 13.9243 134.88 14.0434 134.88 14.1675V15.9497L134.702 15.7094C133.589 14.2034 131.684 13.3389 129.471 13.3389C125.244 13.3389 121.933 16.741 121.933 21.0841C121.933 25.4272 125.244 28.8278 129.471 28.8278C131.586 28.8278 133.54 27.8914 134.702 26.3308L134.88 26.0889V27.9944C134.88 28.1186 134.932 28.2376 135.024 28.3254C135.116 28.4132 135.241 28.4626 135.371 28.4626H137.849C137.977 28.461 138.099 28.4118 138.19 28.3255C138.28 28.2392 138.331 28.1227 138.333 28.0006ZM130.252 25.8158C127.563 25.8158 125.458 23.7387 125.458 21.0872C125.458 18.4358 127.56 16.3539 130.252 16.3539C132.945 16.3539 135.047 18.4326 135.047 21.0841C135.047 23.7355 132.94 25.8127 130.252 25.8127V25.8158Z" fill="white"></path><path d="M101.153 28.8278C103.071 28.8278 104.664 27.9905 105.639 26.4678L105.812 26.1978V27.9809C105.812 28.1081 105.861 28.23 105.949 28.3199C106.038 28.4098 106.157 28.4603 106.282 28.4603H108.707C108.832 28.4603 108.951 28.4098 109.04 28.3199C109.128 28.23 109.177 28.1081 109.177 27.9809V13.8182C109.177 13.6911 109.128 13.5692 109.04 13.4793C108.951 13.3894 108.832 13.3389 108.707 13.3389H106.276C106.151 13.3389 106.031 13.3894 105.943 13.4793C105.855 13.5692 105.805 13.6911 105.805 13.8182V21.3054C105.805 23.9625 104.395 25.6785 102.219 25.6785C100.126 25.6785 98.8765 24.2198 98.8765 21.7736V13.8182C98.8765 13.6911 98.8269 13.5692 98.7387 13.4793C98.6505 13.3894 98.5309 13.3389 98.4062 13.3389H95.981C95.8563 13.3389 95.7367 13.3894 95.6485 13.4793C95.5603 13.5692 95.5107 13.6911 95.5107 13.8182V22.4606C95.5186 26.3879 97.6772 28.8278 101.153 28.8278Z" fill="white"></path><path d="M18.5228 10.6057C17.7676 10.6057 17.1553 9.87959 17.1553 9.15656V2.94381C17.1553 2.21922 17.7676 1.49463 18.5228 1.49463C19.278 1.49463 19.8886 2.21922 19.8886 2.94381V9.15656C19.8886 9.87959 19.2763 10.6057 18.5228 10.6057Z" fill="#E8392D"></path><path d="M13.1639 12.9918C12.6407 13.5165 11.69 13.4161 11.1667 12.8913L6.66818 8.39517C6.14494 7.87043 6.04445 6.92144 6.56928 6.3967C7.09411 5.87197 8.04327 5.97245 8.5665 6.49718L13.065 10.9933C13.5883 11.5181 13.6888 12.4671 13.1639 12.9918Z" fill="#B4D400"></path><path d="M10.7776 18.3493C10.7776 19.1045 10.053 19.7167 9.32844 19.7167H3.11568C2.39109 19.7167 1.6665 19.1045 1.6665 18.3493C1.6665 17.5941 2.39109 16.9834 3.11568 16.9834H9.32844C10.0546 16.9834 10.7776 17.5941 10.7776 18.3493Z" fill="#5BC686"></path><path d="M13.1639 22.7965C13.6888 23.3213 13.5883 24.2703 13.065 24.7951L8.56606 29.2917C8.04278 29.8164 7.09194 29.9169 6.56866 29.3922C6.04538 28.8674 6.14429 27.9183 6.66757 27.3935L11.1745 22.897C11.6898 22.3722 12.6406 22.2733 13.1639 22.7965Z" fill="#009B72"></path><path d="M18.5228 25.1836C19.2763 25.1836 19.8886 25.9082 19.8886 26.6328V32.8455C19.8886 33.5701 19.2763 34.2947 18.5228 34.2947C17.7692 34.2947 17.1553 33.5701 17.1553 32.8455V26.6297C17.1488 25.9051 17.7676 25.1836 18.5228 25.1836Z" fill="#FFB340"></path><path d="M22.9692 22.7962C23.4924 22.2734 24.4432 22.3723 24.9664 22.8966L29.4649 27.3956C29.9882 27.9199 30.0887 28.8681 29.5639 29.3925C29.039 29.9168 28.0899 29.8164 27.5666 29.2921L23.0681 24.7994C22.5448 24.2687 22.4443 23.3205 22.9692 22.7962Z" fill="#006EFA"></path><path d="M25.3555 18.3493C25.3555 17.5941 26.0801 16.9834 26.8046 16.9834H33.0174C33.742 16.9834 34.4666 17.5941 34.4666 18.3493C34.4666 19.1045 33.742 19.7167 33.0174 19.7167H26.8046C26.0801 19.7167 25.3555 19.1045 25.3555 18.3493Z" fill="#54C8E8"></path><path d="M22.9692 12.9918C22.4443 12.467 22.5448 11.5179 23.0681 10.9931L27.5671 6.49657C28.0903 5.97179 29.0412 5.8729 29.5645 6.39608C30.0878 6.91927 29.9888 7.86994 29.4656 8.39473L24.973 12.8913C24.4433 13.4161 23.4925 13.5165 22.9692 12.9918Z" fill="#FFD357"></path><path d="M18.5219 20.6278C19.7799 20.6278 20.7997 19.608 20.7997 18.35C20.7997 17.0921 19.7799 16.0723 18.5219 16.0723C17.2639 16.0723 16.2441 17.0921 16.2441 18.35C16.2441 19.608 17.2639 20.6278 18.5219 20.6278Z" fill="#009B72"></path></svg> 